<svg id="eabuKhnw8jt1" xmlns="http://www.w3.org/2000/svg" xmlns:xlink="http://www.w3.org/1999/xlink" viewBox="0 0 600 600" shape-rendering="geometricPrecision" text-rendering="geometricPrecision" project-id="91a598cf1eb54042a5de8a7e5a563fda" export-id="f3f072327d0a4a2398e11d84526925cb" cached="false"><g transform="translate(19.991013 0)"><ellipse rx="175" ry="175" transform="translate(280.008987 320.03957)" fill="#007aff" stroke="#fff" stroke-width="0"/><path d="M265.150298,229.743893v-140" transform="matrix(1.1 0 0 0.1-11.65634 304.025611)" fill="#166bff" stroke="#fff" stroke-width="14" stroke-linecap="round"/><path d="M265.150298,229.743893v-140" transform="matrix(1.1 0 0 0.1-41.656341 304.025611)" fill="#166bff" stroke="#fff" stroke-width="14" stroke-linecap="round"/><path d="M265.150298,229.743893v-140" transform="matrix(1.1 0 0 0.1 78.343659 304.045396)" fill="#166bff" stroke="#fff" stroke-width="14" stroke-linecap="round"/><path d="M265.150298,229.743893v-140" transform="matrix(1.1 0 0 0.1-71.656341 304.045396)" fill="#166bff" stroke="#fff" stroke-width="14" stroke-linecap="round"/><path d="M265.150298,229.743893v-140" transform="matrix(1.1 0 0 0.1 48.343659 304.065181)" fill="#166bff" stroke="#fff" stroke-width="14" stroke-linecap="round"/><path d="M265.150298,229.743893v-140" transform="matrix(1.1 0 0 0.1-101.656341 304.025611)" fill="#166bff" stroke="#fff" stroke-width="14" stroke-linecap="round"/><path d="M265.150298,229.743893v-140" transform="matrix(1.1 0 0 0.1 18.343659 304.045396)" fill="#166bff" stroke="#fff" stroke-width="14" stroke-linecap="round"/></g></svg>
